<svg id="圖層_1" data-name="圖層 1" xmlns="http://www.w3.org/2000/svg" viewBox="0 0 206.84 197.03"><defs><style>.cls-1{fill:none;stroke:#3587b5;stroke-miterlimit:10;stroke-width:3px;}.cls-2,.cls-3{fill:#3587b5;}.cls-3,.cls-6{font-size:44.79px;font-family:HoboStd, Hobo Std;}.cls-4{fill:#ec6955;}.cls-5{fill:#b95347;}.cls-6{fill:#fff;}.cls-7{letter-spacing:-0.04em;}.cls-8{letter-spacing:0em;}.cls-9{letter-spacing:-0.07em;}</style></defs><path class="cls-1" d="M-311.9,359.46v83.23A13.77,13.77,0,0,0-305,454.63l72.08,41.62a13.79,13.79,0,0,0,13.78,0l72.08-41.62a13.78,13.78,0,0,0,6.9-11.94V359.46a13.8,13.8,0,0,0-6.9-11.94l-72.08-41.61a13.79,13.79,0,0,0-13.78,0L-305,347.52A13.79,13.79,0,0,0-311.9,359.46Z" transform="translate(329.42 -302.56)"/><polygon class="cls-2" points="189.25 119.4 148.6 67.83 124.09 78.55 98.56 51.48 64.5 89.7 50.56 77.27 17.52 103.16 17.52 87.88 54.28 45.67 68.15 60.6 98.37 20.44 127.84 55.43 151.41 40.44 189.25 106.11 189.25 119.4"/><text class="cls-3" transform="translate(67.15 176.11) scale(0.95 1)">SKI</text><polygon class="cls-4" points="0 91.27 15.91 135.12 190.76 135.08 206.84 91.27 0 91.27"/><polygon class="cls-5" points="0 91.27 16.07 81.57 16.11 91.27 0 91.27"/><polygon class="cls-5" points="206.84 91.27 190.75 81.57 190.74 91.27 206.84 91.27"/><text class="cls-6" transform="translate(37.94 132.42) scale(0.95 1)"><tspan class="cls-7">F</tspan><tspan class="cls-8" x="22.75" y="0">AN</tspan><tspan class="cls-9" x="85.77" y="0">T</tspan><tspan x="110.45" y="0">A</tspan></text></svg>